<svg width="52" height="52" viewBox="0 0 52 52" fill="none" xmlns="http://www.w3.org/2000/svg">
<path fill-rule="evenodd" clip-rule="evenodd" d="M44 22C44 31.9411 35.9411 40 26 40C16.0589 40 8 31.9411 8 22C8 12.0589 16.0589 4 26 4C35.9411 4 44 12.0589 44 22Z" fill="black"/>
<g filter="url(#filter0_dd_1_10355)">
<path fill-rule="evenodd" clip-rule="evenodd" d="M44 22C44 31.9411 35.9411 40 26 40C16.0589 40 8 31.9411 8 22C8 12.0589 16.0589 4 26 4C35.9411 4 44 12.0589 44 22Z" fill="black"/>
</g>
<circle cx="18.3077" cy="14.3077" r="2.30769" fill="white"/>
<circle cx="26.0001" cy="14.3077" r="2.30769" fill="white"/>
<circle cx="33.6925" cy="14.3077" r="2.30769" fill="white"/>
<circle cx="18.3077" cy="22" r="2.30769" fill="white"/>
<g filter="url(#filter1_dd_1_10355)">
<circle cx="25.9999" cy="21.9999" r="2.30769" transform="rotate(180 25.9999 21.9999)" fill="url(#paint0_linear_1_10355)"/>
</g>
<circle cx="18.3077" cy="29.6923" r="2.30769" fill="white"/>
<defs>
<filter id="filter0_dd_1_10355" x="0" y="0" width="52" height="52" filterUnits="userSpaceOnUse" color-interpolation-filters="sRGB">
<feFlood flood-opacity="0" result="BackgroundImageFix"/>
<feColorMatrix in="SourceAlpha" type="matrix" values="0 0 0 0 0 0 0 0 0 0 0 0 0 0 0 0 0 0 127 0" result="hardAlpha"/>
<feOffset/>
<feGaussianBlur stdDeviation="1"/>
<feComposite in2="hardAlpha" operator="out"/>
<feColorMatrix type="matrix" values="0 0 0 0 0 0 0 0 0 0 0 0 0 0 0 0 0 0 0.12 0"/>
<feBlend mode="normal" in2="BackgroundImageFix" result="effect1_dropShadow_1_10355"/>
<feColorMatrix in="SourceAlpha" type="matrix" values="0 0 0 0 0 0 0 0 0 0 0 0 0 0 0 0 0 0 127 0" result="hardAlpha"/>
<feOffset dy="4"/>
<feGaussianBlur stdDeviation="4"/>
<feComposite in2="hardAlpha" operator="out"/>
<feColorMatrix type="matrix" values="0 0 0 0 0 0 0 0 0 0 0 0 0 0 0 0 0 0 0.14 0"/>
<feBlend mode="normal" in2="effect1_dropShadow_1_10355" result="effect2_dropShadow_1_10355"/>
<feBlend mode="normal" in="SourceGraphic" in2="effect2_dropShadow_1_10355" result="shape"/>
</filter>
<filter id="filter1_dd_1_10355" x="15.6924" y="15.6923" width="20.6152" height="20.6154" filterUnits="userSpaceOnUse" color-interpolation-filters="sRGB">
<feFlood flood-opacity="0" result="BackgroundImageFix"/>
<feColorMatrix in="SourceAlpha" type="matrix" values="0 0 0 0 0 0 0 0 0 0 0 0 0 0 0 0 0 0 127 0" result="hardAlpha"/>
<feOffset/>
<feGaussianBlur stdDeviation="1"/>
<feComposite in2="hardAlpha" operator="out"/>
<feColorMatrix type="matrix" values="0 0 0 0 0 0 0 0 0 0 0 0 0 0 0 0 0 0 0.12 0"/>
<feBlend mode="normal" in2="BackgroundImageFix" result="effect1_dropShadow_1_10355"/>
<feColorMatrix in="SourceAlpha" type="matrix" values="0 0 0 0 0 0 0 0 0 0 0 0 0 0 0 0 0 0 127 0" result="hardAlpha"/>
<feOffset dy="4"/>
<feGaussianBlur stdDeviation="4"/>
<feComposite in2="hardAlpha" operator="out"/>
<feColorMatrix type="matrix" values="0 0 0 0 0 0 0 0 0 0 0 0 0 0 0 0 0 0 0.14 0"/>
<feBlend mode="normal" in2="effect1_dropShadow_1_10355" result="effect2_dropShadow_1_10355"/>
<feBlend mode="normal" in="SourceGraphic" in2="effect2_dropShadow_1_10355" result="shape"/>
</filter>
<linearGradient id="paint0_linear_1_10355" x1="23.6922" y1="21.9999" x2="28.3076" y2="21.9999" gradientUnits="userSpaceOnUse">
<stop offset="0.104167" stop-color="#464FEB"/>
<stop offset="1" stop-color="#8330E9"/>
</linearGradient>
</defs>
</svg>
