<svg width="107" height="32" viewBox="0 0 107 32" fill="none" xmlns="http://www.w3.org/2000/svg">
<rect width="92" height="32" rx="16" fill="url(#paint0_linear_1_10771)"/>
<path fill-rule="evenodd" clip-rule="evenodd" d="M20.0002 15.3334H18.6668V14C18.6668 13.6334 18.3668 13.3334 18.0002 13.3334C17.6335 13.3334 17.3335 13.6334 17.3335 14V15.3334H16.0002C15.6335 15.3334 15.3335 15.6334 15.3335 16C15.3335 16.3667 15.6335 16.6667 16.0002 16.6667H17.3335V18C17.3335 18.3667 17.6335 18.6667 18.0002 18.6667C18.3668 18.6667 18.6668 18.3667 18.6668 18V16.6667H20.0002C20.3668 16.6667 20.6668 16.3667 20.6668 16C20.6668 15.6334 20.3668 15.3334 20.0002 15.3334ZM18.0002 21.3334C15.0595 21.3334 12.6668 18.9407 12.6668 16C12.6668 13.0594 15.0595 10.6667 18.0002 10.6667C20.9408 10.6667 23.3335 13.0594 23.3335 16C23.3335 18.9407 20.9408 21.3334 18.0002 21.3334ZM18.0002 9.33337C14.3242 9.33337 11.3335 12.324 11.3335 16C11.3335 19.676 14.3242 22.6667 18.0002 22.6667C21.6762 22.6667 24.6668 19.676 24.6668 16C24.6668 12.324 21.6762 9.33337 18.0002 9.33337Z" fill="white"/>
<path d="M30.4175 20L33.7715 10.9H34.9285L38.2695 20H37.1125L36.2805 17.66H32.4065L31.5615 20H30.4175ZM32.7315 16.776H35.9555L34.3435 12.278L32.7315 16.776ZM41.6968 20.156C41.0555 20.156 40.4921 20.0087 40.0068 19.714C39.5301 19.4193 39.1575 19.0163 38.8888 18.505C38.6288 17.9937 38.4988 17.413 38.4988 16.763C38.4988 16.113 38.6331 15.5367 38.9018 15.034C39.1705 14.5227 39.5431 14.124 40.0198 13.838C40.4965 13.5433 41.0598 13.396 41.7098 13.396C42.2385 13.396 42.7065 13.5043 43.1138 13.721C43.5211 13.9377 43.8375 14.241 44.0628 14.631V10.64H45.1548V20H44.1668L44.0628 18.934C43.8548 19.246 43.5558 19.5277 43.1658 19.779C42.7758 20.0303 42.2861 20.156 41.6968 20.156ZM41.8138 19.207C42.2471 19.207 42.6285 19.1073 42.9578 18.908C43.2958 18.7 43.5558 18.414 43.7378 18.05C43.9285 17.686 44.0238 17.2613 44.0238 16.776C44.0238 16.2907 43.9285 15.866 43.7378 15.502C43.5558 15.138 43.2958 14.8563 42.9578 14.657C42.6285 14.449 42.2471 14.345 41.8138 14.345C41.3891 14.345 41.0078 14.449 40.6698 14.657C40.3405 14.8563 40.0805 15.138 39.8898 15.502C39.7078 15.866 39.6168 16.2907 39.6168 16.776C39.6168 17.2613 39.7078 17.686 39.8898 18.05C40.0805 18.414 40.3405 18.7 40.6698 18.908C41.0078 19.1073 41.3891 19.207 41.8138 19.207ZM49.4299 20.156C48.7886 20.156 48.2252 20.0087 47.7399 19.714C47.2632 19.4193 46.8906 19.0163 46.6219 18.505C46.3619 17.9937 46.2319 17.413 46.2319 16.763C46.2319 16.113 46.3662 15.5367 46.6349 15.034C46.9036 14.5227 47.2762 14.124 47.7529 13.838C48.2296 13.5433 48.7929 13.396 49.4429 13.396C49.9716 13.396 50.4396 13.5043 50.8469 13.721C51.2542 13.9377 51.5706 14.241 51.7959 14.631V10.64H52.8879V20H51.8999L51.7959 18.934C51.5879 19.246 51.2889 19.5277 50.8989 19.779C50.5089 20.0303 50.0192 20.156 49.4299 20.156ZM49.5469 19.207C49.9802 19.207 50.3616 19.1073 50.6909 18.908C51.0289 18.7 51.2889 18.414 51.4709 18.05C51.6616 17.686 51.7569 17.2613 51.7569 16.776C51.7569 16.2907 51.6616 15.866 51.4709 15.502C51.2889 15.138 51.0289 14.8563 50.6909 14.657C50.3616 14.449 49.9802 14.345 49.5469 14.345C49.1222 14.345 48.7409 14.449 48.4029 14.657C48.0736 14.8563 47.8136 15.138 47.6229 15.502C47.4409 15.866 47.3499 16.2907 47.3499 16.776C47.3499 17.2613 47.4409 17.686 47.6229 18.05C47.8136 18.414 48.0736 18.7 48.4029 18.908C48.7409 19.1073 49.1222 19.207 49.5469 19.207ZM57.3134 20V10.9H58.4054L63.2544 18.193V10.9H64.3464V20H63.2544L58.4054 12.707V20H57.3134ZM68.6803 20.156C68.065 20.156 67.519 20.0173 67.0423 19.74C66.5656 19.454 66.1886 19.0597 65.9113 18.557C65.6426 18.0543 65.5083 17.4607 65.5083 16.776C65.5083 16.1 65.6426 15.5107 65.9113 15.008C66.18 14.4967 66.5526 14.1023 67.0293 13.825C67.5146 13.539 68.0736 13.396 68.7063 13.396C69.3303 13.396 69.8676 13.539 70.3183 13.825C70.7776 14.1023 71.1286 14.4707 71.3713 14.93C71.614 15.3893 71.7353 15.8833 71.7353 16.412C71.7353 16.5073 71.731 16.6027 71.7223 16.698C71.7223 16.7933 71.7223 16.9017 71.7223 17.023H66.5873C66.6133 17.517 66.726 17.9287 66.9253 18.258C67.1333 18.5787 67.389 18.8213 67.6923 18.986C68.0043 19.1507 68.3336 19.233 68.6803 19.233C69.131 19.233 69.508 19.129 69.8113 18.921C70.1146 18.713 70.3356 18.4313 70.4743 18.076H71.5533C71.38 18.674 71.0463 19.1723 70.5523 19.571C70.067 19.961 69.443 20.156 68.6803 20.156ZM68.6803 14.319C68.1603 14.319 67.6966 14.4793 67.2893 14.8C66.8906 15.112 66.661 15.5713 66.6003 16.178H70.6563C70.6303 15.5973 70.431 15.1423 70.0583 14.813C69.6856 14.4837 69.2263 14.319 68.6803 14.319ZM73.7988 20L71.9138 13.552H73.0058L74.3708 18.609L75.8788 13.552H77.1138L78.6348 18.609L79.9868 13.552H81.0918L79.2068 20H78.0888L76.5028 14.683L74.9168 20H73.7988Z" fill="white"/>
<defs>
<linearGradient id="paint0_linear_1_10771" x1="0" y1="16" x2="92" y2="16" gradientUnits="userSpaceOnUse">
<stop offset="0.104167" stop-color="#464FEB"/>
<stop offset="1" stop-color="#8330E9"/>
</linearGradient>
</defs>
</svg>
