<svg width="164" height="60" viewBox="0 0 164 60" fill="none" xmlns="http://www.w3.org/2000/svg">
<g filter="url(#filter0_dd_1_10386)">
<rect x="8" y="4.00012" width="148" height="44" rx="22" fill="url(#paint0_linear_1_10386)" shape-rendering="crispEdges"/>
<g clip-path="url(#clip0_1_10386)">
<path d="M40.3166 14.4235L40.839 16.0297C41.0015 16.518 41.2757 16.9617 41.6398 17.3256C42.004 17.6895 42.448 17.9635 42.9367 18.1258L44.5441 18.6478L44.5763 18.6558C44.7002 18.6995 44.8075 18.7805 44.8834 18.8877C44.9592 18.9948 45 19.1229 45 19.2541C45 19.3854 44.9592 19.5135 44.8834 19.6206C44.8075 19.7278 44.7002 19.8088 44.5763 19.8525L42.9689 20.3745C42.4802 20.5368 42.0361 20.8108 41.672 21.1746C41.3078 21.5385 41.0336 21.9822 40.8712 22.4706L40.3488 24.0768C40.3051 24.2006 40.224 24.3078 40.1168 24.3836C40.0095 24.4594 39.8814 24.5001 39.75 24.5001C39.6186 24.5001 39.4905 24.4594 39.3832 24.3836C39.3727 24.3761 39.3624 24.3683 39.3523 24.3602C39.2604 24.2864 39.1906 24.1883 39.1512 24.0768L38.6288 22.4706C38.6007 22.3853 38.5693 22.3015 38.5345 22.2191C38.3694 21.8282 38.1303 21.4719 37.8295 21.1701C37.7723 21.1127 37.7131 21.0576 37.6521 21.0047C37.3245 20.7211 36.9438 20.5039 36.5311 20.3664L34.9237 19.8444C34.7998 19.8007 34.6925 19.7197 34.6166 19.6126C34.5408 19.5054 34.5 19.3774 34.5 19.2461C34.5 19.1148 34.5408 18.9868 34.6166 18.8796C34.6925 18.7725 34.7998 18.6915 34.9237 18.6478L36.5311 18.1258C37.0139 17.9592 37.4515 17.6834 37.8098 17.3197C38.1682 16.9561 38.4375 16.5146 38.5967 16.0297L39.1191 14.4235C39.1628 14.2997 39.2439 14.1925 39.3511 14.1167C39.4583 14.0408 39.5865 14.0001 39.7179 14.0001C39.8492 14.0001 39.9774 14.0408 40.0846 14.1167C40.1918 14.1925 40.2729 14.2997 40.3166 14.4235ZM47.6744 26.3199L46.5262 25.947C46.1772 25.8311 45.86 25.6354 45.5999 25.3755C45.3398 25.1156 45.1439 24.7986 45.0279 24.4498L44.6547 23.3025C44.6235 23.2141 44.5656 23.1375 44.489 23.0834C44.4124 23.0292 44.3209 23.0001 44.227 23.0001C44.1332 23.0001 44.0417 23.0292 43.9651 23.0834C43.8885 23.1375 43.8306 23.2141 43.7993 23.3025L43.4262 24.4498C43.3125 24.7962 43.1201 25.1115 42.8642 25.3713C42.6082 25.631 42.2956 25.8281 41.9508 25.947L40.8026 26.3199C40.7141 26.3511 40.6375 26.409 40.5833 26.4855C40.5291 26.562 40.5 26.6535 40.5 26.7473C40.5 26.841 40.5291 26.9325 40.5833 27.009C40.6375 27.0856 40.7141 27.1434 40.8026 27.1746L41.9508 27.5475C42.3005 27.664 42.6181 27.8606 42.8782 28.1215C43.1384 28.3825 43.3339 28.7006 43.4492 29.0504L43.8223 30.1977C43.8535 30.2862 43.9114 30.3627 43.988 30.4169C44.0646 30.4711 44.1562 30.5001 44.25 30.5001C44.3438 30.5001 44.4354 30.4711 44.512 30.4169C44.5886 30.3627 44.6465 30.2862 44.6777 30.1977L45.0508 29.0504C45.1669 28.7016 45.3627 28.3847 45.6228 28.1248C45.8829 27.8649 46.2001 27.6692 46.5492 27.5532L47.6974 27.1804C47.7859 27.1492 47.8625 27.0913 47.9167 27.0148C47.9709 26.9382 48 26.8468 48 26.753C48 26.6592 47.9709 26.5678 47.9167 26.4912C47.8625 26.4147 47.7859 26.3568 47.6974 26.3256L47.6744 26.3199ZM42.4136 30.7229C42.551 31.0668 42.764 31.3603 43.0524 31.5919C41.4038 33.6684 38.8574 35 36 35C34.3596 35 32.8198 34.5604 31.4943 33.7925L27.9872 34.9615C27.7233 35.0495 27.4323 34.9841 27.2313 34.7917C27.0304 34.5993 26.9524 34.3114 27.0289 34.0439L28.0963 30.308C27.3972 29.0279 27 27.5593 27 26C27 21.3813 30.4792 17.5752 34.9597 17.0594L34.4263 17.2308C34.0059 17.3811 33.6456 17.6515 33.3904 18.0121C33.1582 18.3401 33.0254 18.7178 33.0033 19.1226C30.3527 20.2792 28.5 22.9232 28.5 26C28.5 27.3996 28.8827 28.7076 29.5487 29.8274C29.6543 30.005 29.682 30.2182 29.6252 30.4168L28.8618 33.0888L31.3491 32.2597C31.563 32.1884 31.7976 32.2171 31.988 32.3379C33.1478 33.0738 34.523 33.5 36 33.5C38.5986 33.5 40.8885 32.1784 42.2343 30.1708L42.4136 30.7229Z" fill="white"/>
</g>
<path d="M56.8748 31.0001L61.0028 19.8001H62.8588L66.9548 31.0001H65.1628L64.2028 28.2641H59.6268L58.6668 31.0001H56.8748ZM60.1068 26.9201H63.7228L61.9148 21.8161L60.1068 26.9201ZM71.1906 31.1921C70.188 31.1921 69.3613 30.9468 68.7106 30.4561C68.06 29.9655 67.6866 29.3148 67.5906 28.5041H69.3026C69.388 28.8668 69.5906 29.1815 69.9106 29.4481C70.2306 29.7041 70.652 29.8321 71.1746 29.8321C71.6866 29.8321 72.06 29.7255 72.2946 29.5121C72.5293 29.2988 72.6466 29.0535 72.6466 28.7761C72.6466 28.3708 72.4813 28.0988 72.1506 27.9601C71.8306 27.8108 71.3826 27.6775 70.8066 27.5601C70.3586 27.4641 69.9106 27.3361 69.4626 27.1761C69.0253 27.0161 68.6573 26.7921 68.3586 26.5041C68.0706 26.2055 67.9266 25.8055 67.9266 25.3041C67.9266 24.6108 68.1933 24.0348 68.7266 23.5761C69.26 23.1068 70.0066 22.8721 70.9666 22.8721C71.852 22.8721 72.5666 23.0855 73.1106 23.5121C73.6653 23.9388 73.9906 24.5415 74.0866 25.3201H72.4546C72.4013 24.9788 72.2413 24.7121 71.9746 24.5201C71.7186 24.3281 71.372 24.2321 70.9346 24.2321C70.508 24.2321 70.1773 24.3228 69.9426 24.5041C69.708 24.6748 69.5906 24.8988 69.5906 25.1761C69.5906 25.4535 69.7506 25.6721 70.0706 25.8321C70.4013 25.9921 70.8333 26.1361 71.3666 26.2641C71.9 26.3815 72.3906 26.5201 72.8386 26.6801C73.2973 26.8295 73.6653 27.0535 73.9426 27.3521C74.22 27.6508 74.3586 28.0881 74.3586 28.6641C74.3693 29.3895 74.0866 29.9921 73.5106 30.4721C72.9453 30.9521 72.172 31.1921 71.1906 31.1921ZM75.7801 31.0001V19.4801H77.4761V26.3441L80.5161 23.0641H82.5481L79.1721 26.6641L83.0441 31.0001H80.9001L77.4761 26.9361V31.0001H75.7801ZM92.5855 31.1921C91.4762 31.1921 90.5162 30.9521 89.7055 30.4721C88.9055 29.9815 88.2868 29.3041 87.8495 28.4401C87.4122 27.5655 87.1935 26.5575 87.1935 25.4161C87.1935 24.2641 87.4122 23.2561 87.8495 22.3921C88.2868 21.5175 88.9055 20.8348 89.7055 20.3441C90.5162 19.8535 91.4762 19.6081 92.5855 19.6081C93.8975 19.6081 94.9695 19.9281 95.8015 20.5681C96.6335 21.2081 97.1615 22.1041 97.3855 23.2561H95.4975C95.3482 22.6055 95.0282 22.0881 94.5375 21.7041C94.0468 21.3201 93.3908 21.1281 92.5695 21.1281C91.4495 21.1281 90.5642 21.5121 89.9135 22.2801C89.2628 23.0375 88.9375 24.0828 88.9375 25.4161C88.9375 26.7388 89.2628 27.7788 89.9135 28.5361C90.5642 29.2935 91.4495 29.6721 92.5695 29.6721C93.3908 29.6721 94.0468 29.4908 94.5375 29.1281C95.0282 28.7655 95.3482 28.2695 95.4975 27.6401H97.3855C97.1615 28.7495 96.6335 29.6188 95.8015 30.2481C94.9695 30.8775 93.8975 31.1921 92.5855 31.1921ZM102.468 31.1921C101.71 31.1921 101.028 31.0215 100.42 30.6801C99.8224 30.3281 99.3478 29.8428 98.9958 29.2241C98.6438 28.5948 98.4678 27.8641 98.4678 27.0321C98.4678 26.2001 98.6438 25.4748 98.9958 24.8561C99.3584 24.2268 99.8438 23.7415 100.452 23.4001C101.06 23.0481 101.737 22.8721 102.484 22.8721C103.241 22.8721 103.918 23.0481 104.516 23.4001C105.124 23.7415 105.604 24.2268 105.956 24.8561C106.318 25.4748 106.5 26.2001 106.5 27.0321C106.5 27.8641 106.318 28.5948 105.956 29.2241C105.604 29.8428 105.124 30.3281 104.516 30.6801C103.908 31.0215 103.225 31.1921 102.468 31.1921ZM102.468 29.7361C102.873 29.7361 103.246 29.6348 103.588 29.4321C103.94 29.2295 104.222 28.9308 104.436 28.5361C104.649 28.1308 104.756 27.6295 104.756 27.0321C104.756 26.4348 104.649 25.9388 104.436 25.5441C104.233 25.1388 103.956 24.8348 103.604 24.6321C103.262 24.4295 102.889 24.3281 102.484 24.3281C102.078 24.3281 101.7 24.4295 101.348 24.6321C101.006 24.8348 100.729 25.1388 100.516 25.5441C100.302 25.9388 100.196 26.4348 100.196 27.0321C100.196 27.6295 100.302 28.1308 100.516 28.5361C100.729 28.9308 101.006 29.2295 101.348 29.4321C101.689 29.6348 102.062 29.7361 102.468 29.7361ZM107.904 34.5201V23.0641H109.424L109.6 24.2961C109.856 23.9228 110.208 23.5921 110.656 23.3041C111.104 23.0161 111.68 22.8721 112.384 22.8721C113.152 22.8721 113.829 23.0535 114.416 23.4161C115.003 23.7788 115.461 24.2748 115.792 24.9041C116.133 25.5335 116.304 26.2481 116.304 27.0481C116.304 27.8481 116.133 28.5628 115.792 29.1921C115.461 29.8108 115.003 30.3015 114.416 30.6641C113.829 31.0161 113.147 31.1921 112.368 31.1921C111.749 31.1921 111.2 31.0695 110.72 30.8241C110.251 30.5788 109.877 30.2321 109.6 29.7841V34.5201H107.904ZM112.08 29.7201C112.805 29.7201 113.403 29.4748 113.872 28.9841C114.341 28.4828 114.576 27.8321 114.576 27.0321C114.576 26.5095 114.469 26.0455 114.256 25.6401C114.043 25.2348 113.749 24.9201 113.376 24.6961C113.003 24.4615 112.571 24.3441 112.08 24.3441C111.355 24.3441 110.757 24.5948 110.288 25.0961C109.829 25.5975 109.6 26.2428 109.6 27.0321C109.6 27.8321 109.829 28.4828 110.288 28.9841C110.757 29.4748 111.355 29.7201 112.08 29.7201ZM118.668 21.5601C118.348 21.5601 118.082 21.4641 117.868 21.2721C117.666 21.0695 117.564 20.8188 117.564 20.5201C117.564 20.2215 117.666 19.9761 117.868 19.7841C118.082 19.5815 118.348 19.4801 118.668 19.4801C118.988 19.4801 119.25 19.5815 119.452 19.7841C119.666 19.9761 119.772 20.2215 119.772 20.5201C119.772 20.8188 119.666 21.0695 119.452 21.2721C119.25 21.4641 118.988 21.5601 118.668 21.5601ZM117.82 31.0001V23.0641H119.516V31.0001H117.82ZM121.325 31.0001V19.4801H123.021V31.0001H121.325ZM128.451 31.1921C127.694 31.1921 127.011 31.0215 126.403 30.6801C125.806 30.3281 125.331 29.8428 124.979 29.2241C124.627 28.5948 124.451 27.8641 124.451 27.0321C124.451 26.2001 124.627 25.4748 124.979 24.8561C125.342 24.2268 125.827 23.7415 126.435 23.4001C127.043 23.0481 127.72 22.8721 128.467 22.8721C129.224 22.8721 129.902 23.0481 130.499 23.4001C131.107 23.7415 131.587 24.2268 131.939 24.8561C132.302 25.4748 132.483 26.2001 132.483 27.0321C132.483 27.8641 132.302 28.5948 131.939 29.2241C131.587 29.8428 131.107 30.3281 130.499 30.6801C129.891 31.0215 129.208 31.1921 128.451 31.1921ZM128.451 29.7361C128.856 29.7361 129.23 29.6348 129.571 29.4321C129.923 29.2295 130.206 28.9308 130.419 28.5361C130.632 28.1308 130.739 27.6295 130.739 27.0321C130.739 26.4348 130.632 25.9388 130.419 25.5441C130.216 25.1388 129.939 24.8348 129.587 24.6321C129.246 24.4295 128.872 24.3281 128.467 24.3281C128.062 24.3281 127.683 24.4295 127.331 24.6321C126.99 24.8348 126.712 25.1388 126.499 25.5441C126.286 25.9388 126.179 26.4348 126.179 27.0321C126.179 27.6295 126.286 28.1308 126.499 28.5361C126.712 28.9308 126.99 29.2295 127.331 29.4321C127.672 29.6348 128.046 29.7361 128.451 29.7361ZM136.903 31.0001C136.124 31.0001 135.505 30.8135 135.047 30.4401C134.588 30.0561 134.359 29.3788 134.359 28.4081V24.4881H132.999V23.0641H134.359L134.567 21.0481H136.055V23.0641H138.295V24.4881H136.055V28.4081C136.055 28.8455 136.145 29.1495 136.327 29.3201C136.519 29.4801 136.844 29.5601 137.303 29.5601H138.215V31.0001H136.903Z" fill="white"/>
</g>
<defs>
<filter id="filter0_dd_1_10386" x="0" y="0.00012207" width="164" height="60" filterUnits="userSpaceOnUse" color-interpolation-filters="sRGB">
<feFlood flood-opacity="0" result="BackgroundImageFix"/>
<feColorMatrix in="SourceAlpha" type="matrix" values="0 0 0 0 0 0 0 0 0 0 0 0 0 0 0 0 0 0 127 0" result="hardAlpha"/>
<feOffset/>
<feGaussianBlur stdDeviation="1"/>
<feComposite in2="hardAlpha" operator="out"/>
<feColorMatrix type="matrix" values="0 0 0 0 0 0 0 0 0 0 0 0 0 0 0 0 0 0 0.12 0"/>
<feBlend mode="normal" in2="BackgroundImageFix" result="effect1_dropShadow_1_10386"/>
<feColorMatrix in="SourceAlpha" type="matrix" values="0 0 0 0 0 0 0 0 0 0 0 0 0 0 0 0 0 0 127 0" result="hardAlpha"/>
<feOffset dy="4"/>
<feGaussianBlur stdDeviation="4"/>
<feComposite in2="hardAlpha" operator="out"/>
<feColorMatrix type="matrix" values="0 0 0 0 0 0 0 0 0 0 0 0 0 0 0 0 0 0 0.14 0"/>
<feBlend mode="normal" in2="effect1_dropShadow_1_10386" result="effect2_dropShadow_1_10386"/>
<feBlend mode="normal" in="SourceGraphic" in2="effect2_dropShadow_1_10386" result="shape"/>
</filter>
<linearGradient id="paint0_linear_1_10386" x1="8" y1="26.0001" x2="156" y2="26.0001" gradientUnits="userSpaceOnUse">
<stop offset="0.104167" stop-color="#464FEB"/>
<stop offset="1" stop-color="#8330E9"/>
</linearGradient>
<clipPath id="clip0_1_10386">
<rect width="24" height="24" fill="white" transform="translate(24 14.0001)"/>
</clipPath>
</defs>
</svg>
