<svg width="24" height="24" viewBox="0 0 24 24" fill="none" xmlns="http://www.w3.org/2000/svg">
<g clip-path="url(#clip0_1_10391)">
<path d="M5 18.0001H19V11.0311C19 7.14812 15.866 4.00012 12 4.00012C8.134 4.00012 5 7.14812 5 11.0311V18.0001ZM12 2.00012C16.97 2.00012 21 6.04312 21 11.0311V20.0001H3V11.0311C3 6.04312 7.03 2.00012 12 2.00012ZM9.5 21.0001H14.5C14.5 21.6632 14.2366 22.299 13.7678 22.7679C13.2989 23.2367 12.663 23.5001 12 23.5001C11.337 23.5001 10.7011 23.2367 10.2322 22.7679C9.76339 22.299 9.5 21.6632 9.5 21.0001Z" fill="#231F20"/>
</g>
<defs>
<clipPath id="clip0_1_10391">
<rect width="24" height="24" fill="white"/>
</clipPath>
</defs>
</svg>
