<svg width="16" height="16" viewBox="0 0 16 16" fill="none" xmlns="http://www.w3.org/2000/svg">
<path fill-rule="evenodd" clip-rule="evenodd" d="M7.25118 11.638L8.60185 12.66V9.62463C8.60185 9.51396 8.62985 9.4053 8.68185 9.30796L11.5485 3.99996H4.42852L7.17652 9.31863C7.22585 9.4133 7.25118 9.51863 7.25118 9.62463V11.638ZM9.26866 14.6666C9.12666 14.6666 8.98466 14.6213 8.86666 14.5313L6.18266 12.5013C6.01599 12.3753 5.91799 12.1786 5.91799 11.97V9.78729L2.74132 3.63929C2.63399 3.43263 2.64266 3.18529 2.76399 2.98663C2.88466 2.78796 3.10066 2.66663 3.33332 2.66663H12.6667C12.9013 2.66663 13.1187 2.78996 13.2393 2.99196C13.3593 3.19329 13.3647 3.44329 13.2533 3.64996L9.93532 9.79329V14C9.93532 14.2526 9.79266 14.484 9.56599 14.5966C9.47199 14.6433 9.36999 14.6666 9.26866 14.6666Z" fill="url(#paint0_linear_1_10766)"/>
<defs>
<linearGradient id="paint0_linear_1_10766" x1="2.6665" y1="8.66663" x2="13.3332" y2="8.66663" gradientUnits="userSpaceOnUse">
<stop offset="0.104167" stop-color="#464FEB"/>
<stop offset="1" stop-color="#8330E9"/>
</linearGradient>
</defs>
</svg>
