<svg width="16" height="17" viewBox="0 0 16 17" fill="none" xmlns="http://www.w3.org/2000/svg">
<path fill-rule="evenodd" clip-rule="evenodd" d="M3.33363 8.06293C3.33363 5.85693 5.12763 4.06293 7.33363 4.06293C9.53963 4.06293 11.3336 5.85693 11.3336 8.06293C11.3336 10.2689 9.53963 12.0629 7.33363 12.0629C5.12763 12.0629 3.33363 10.2689 3.33363 8.06293ZM13.8047 13.5916L11.5413 11.3276C12.2433 10.4249 12.6667 9.29361 12.6667 8.06295C12.6667 5.12228 10.274 2.72961 7.33333 2.72961C4.39267 2.72961 2 5.12228 2 8.06295C2 11.0036 4.39267 13.3963 7.33333 13.3963C8.564 13.3963 9.69533 12.9729 10.598 12.2709L12.862 14.5343C12.992 14.6643 13.1627 14.7296 13.3333 14.7296C13.504 14.7296 13.6747 14.6643 13.8047 14.5343C14.0653 14.2736 14.0653 13.8523 13.8047 13.5916Z" fill="url(#paint0_linear_1_10779)"/>
<defs>
<linearGradient id="paint0_linear_1_10779" x1="2" y1="8.72962" x2="14.0002" y2="8.72962" gradientUnits="userSpaceOnUse">
<stop offset="0.104167" stop-color="#464FEB"/>
<stop offset="1" stop-color="#8330E9"/>
</linearGradient>
</defs>
</svg>
