<svg width="24" height="24" viewBox="0 0 24 24" fill="none" xmlns="http://www.w3.org/2000/svg">
<path fill-rule="evenodd" clip-rule="evenodd" d="M5 11.0001C5 7.69112 7.691 5.00012 11 5.00012C14.309 5.00012 17 7.69112 17 11.0001C17 14.3091 14.309 17.0001 11 17.0001C7.691 17.0001 5 14.3091 5 11.0001ZM20.707 19.2931L17.312 15.8971C18.365 14.5431 19 12.8461 19 11.0001C19 6.58912 15.411 3.00012 11 3.00012C6.589 3.00012 3 6.58912 3 11.0001C3 15.4111 6.589 19.0001 11 19.0001C12.846 19.0001 14.543 18.3651 15.897 17.3121L19.293 20.7071C19.488 20.9021 19.744 21.0001 20 21.0001C20.256 21.0001 20.512 20.9021 20.707 20.7071C21.098 20.3161 21.098 19.6841 20.707 19.2931Z" fill="#231F20"/>
</svg>
