<svg width="21" height="21" viewBox="0 0 21 21" fill="none" xmlns="http://www.w3.org/2000/svg">
<path d="M13.3166 0.423499L13.839 2.0297C14.0015 2.51801 14.2757 2.96174 14.6398 3.32561C15.004 3.68948 15.448 3.96346 15.9367 4.12579L17.5441 4.6478L17.5763 4.65583C17.7002 4.69951 17.8075 4.78051 17.8834 4.88767C17.9592 4.99482 18 5.12287 18 5.25414C18 5.38542 17.9592 5.51346 17.8834 5.62062C17.8075 5.72778 17.7002 5.80878 17.5763 5.85245L15.9689 6.37447C15.4802 6.53679 15.0361 6.81078 14.672 7.17465C14.3078 7.53852 14.0336 7.98224 13.8712 8.47056L13.3488 10.0768C13.3051 10.2006 13.224 10.3078 13.1168 10.3836C13.0095 10.4594 12.8814 10.5001 12.75 10.5001C12.6186 10.5001 12.4905 10.4594 12.3832 10.3836C12.3727 10.3761 12.3624 10.3683 12.3523 10.3602C12.2604 10.2864 12.1906 10.1883 12.1512 10.0768L11.6288 8.47056C11.6007 8.38533 11.5693 8.30145 11.5345 8.21911C11.3694 7.82821 11.1303 7.47186 10.8295 7.1701C10.7723 7.11272 10.7131 7.05756 10.6521 7.00471C10.3245 6.72109 9.94379 6.50394 9.53113 6.36643L7.9237 5.84442C7.79981 5.80075 7.69253 5.71975 7.61664 5.61259C7.54075 5.50543 7.5 5.37739 7.5 5.24611C7.5 5.11484 7.54075 4.98679 7.61664 4.87963C7.69253 4.77247 7.79981 4.69148 7.9237 4.6478L9.53113 4.12579C10.0139 3.95923 10.4515 3.68335 10.8098 3.31973C11.1682 2.9561 11.4375 2.51459 11.5967 2.0297L12.1191 0.423499C12.1628 0.299701 12.2439 0.1925 12.3511 0.116672C12.4583 0.040843 12.5865 0.00012207 12.7179 0.00012207C12.8492 0.00012207 12.9774 0.040843 13.0846 0.116672C13.1918 0.1925 13.2729 0.299701 13.3166 0.423499ZM20.6744 12.3199L19.5262 11.947C19.1772 11.8311 18.86 11.6354 18.5999 11.3755C18.3398 11.1156 18.1439 10.7986 18.0279 10.4498L17.6547 9.30254C17.6235 9.21412 17.5656 9.13754 17.489 9.08338C17.4124 9.02922 17.3209 9.00013 17.227 9.00013C17.1332 9.00013 17.0417 9.02922 16.9651 9.08338C16.8885 9.13754 16.8306 9.21412 16.7993 9.30254L16.4262 10.4498C16.3125 10.7962 16.1201 11.1115 15.8642 11.3713C15.6082 11.631 15.2956 11.8281 14.9508 11.947L13.8026 12.3199C13.7141 12.3511 13.6375 12.409 13.5833 12.4855C13.5291 12.562 13.5 12.6535 13.5 12.7473C13.5 12.841 13.5291 12.9325 13.5833 13.009C13.6375 13.0856 13.7141 13.1434 13.8026 13.1746L14.9508 13.5475C15.3005 13.664 15.6181 13.8606 15.8782 14.1215C16.1384 14.3825 16.3339 14.7006 16.4492 15.0504L16.8223 16.1977C16.8535 16.2862 16.9114 16.3627 16.988 16.4169C17.0646 16.4711 17.1562 16.5001 17.25 16.5001C17.3438 16.5001 17.4354 16.4711 17.512 16.4169C17.5886 16.3627 17.6465 16.2862 17.6777 16.1977L18.0508 15.0504C18.1669 14.7016 18.3627 14.3847 18.6228 14.1248C18.8829 13.8649 19.2001 13.6692 19.5492 13.5532L20.6974 13.1804C20.7859 13.1492 20.8625 13.0913 20.9167 13.0148C20.9709 12.9382 21 12.8468 21 12.753C21 12.6592 20.9709 12.5678 20.9167 12.4912C20.8625 12.4147 20.7859 12.3568 20.6974 12.3256L20.6744 12.3199ZM15.4136 16.7229C15.551 17.0668 15.764 17.3603 16.0524 17.5919C14.4038 19.6684 11.8574 21 9.00002 21C7.35958 21 5.81984 20.5604 4.49427 19.7925L0.987192 20.9615C0.72325 21.0495 0.432294 20.9841 0.231337 20.7917C0.0303793 20.5993 -0.0475546 20.3114 0.0288779 20.0439L1.09629 16.308C0.397206 15.0279 2.08201e-05 13.5593 2.08201e-05 12C2.08201e-05 7.38127 3.47917 3.57517 7.95968 3.05945L7.4263 3.23084C7.00591 3.38109 6.64559 3.65153 6.39036 4.01212C6.15821 4.3401 6.02542 4.71779 6.0033 5.1226C3.35269 6.27918 1.50002 8.92322 1.50002 12C1.50002 13.3996 1.8827 14.7076 2.54869 15.8274C2.65428 16.005 2.68196 16.2182 2.62521 16.4168L1.86179 19.0888L4.34907 18.2597C4.56299 18.1884 4.79764 18.2171 4.98804 18.3379C6.14781 19.0738 7.523 19.5 9.00002 19.5C11.5986 19.5 13.8885 18.1784 15.2343 16.1708L15.4136 16.7229Z" fill="white"/>
</svg>
